<?xml version="1.0" encoding="UTF-8" standalone="no"?>
<svg
   xmlns:dc="http://purl.org/dc/elements/1.1/"
   xmlns:cc="http://creativecommons.org/ns#"
   xmlns:rdf="http://www.w3.org/1999/02/22-rdf-syntax-ns#"
   xmlns:svg="http://www.w3.org/2000/svg"
   xmlns="http://www.w3.org/2000/svg"
   xmlns:xlink="http://www.w3.org/1999/xlink"
   xmlns:sodipodi="http://sodipodi.sourceforge.net/DTD/sodipodi-0.dtd"
   xmlns:inkscape="http://www.inkscape.org/namespaces/inkscape"
   inkscape:export-ydpi="96"
   inkscape:export-xdpi="96"
   inkscape:export-filename="/Users/user/kuip.png"
   sodipodi:docname="kuip.svg"
   inkscape:version="1.0alpha2 (883c7bc, 2019-06-02)"
   id="svg8"
   version="1.1"
   viewBox="0 0 270.93333 270.93334"
   height="1024"
   width="1024">
  <defs
     id="defs2">
    <linearGradient
       inkscape:collect="always"
       id="linearGradient1012">
      <stop
         style="stop-color:#808080;stop-opacity:1;"
         offset="0"
         id="stop1008" />
      <stop
         id="stop1018"
         offset="0.52217519"
         style="stop-color:#808080;stop-opacity:0.01851852" />
      <stop
         id="stop1016"
         offset="0.71585304"
         style="stop-color:#808080;stop-opacity:1" />
      <stop
         style="stop-color:#808080;stop-opacity:0;"
         offset="1"
         id="stop1010" />
    </linearGradient>
    <inkscape:path-effect
       effect="envelope"
       id="path-effect984"
       is_visible="true"
       yy="true"
       xx="true"
       bendpath1="M 121.47826,71.046372 147.9826,70.678256"
       bendpath2="m 149.08695,75.83188 v 7.730435"
       bendpath3="m 119.26956,83.562315 h 29.81739"
       bendpath4="m 119.26956,75.83188 v 7.730435"
       bendpath1-nodetypes="cc" />
    <linearGradient
       inkscape:collect="always"
       id="linearGradient949">
      <stop
         style="stop-color:#ffffff;stop-opacity:1;"
         offset="0"
         id="stop945" />
      <stop
         id="stop955"
         offset="0.5954783"
         style="stop-color:#ffffff;stop-opacity:0" />
      <stop
         id="stop953"
         offset="0.81252176"
         style="stop-color:#808080;stop-opacity:1" />
      <stop
         style="stop-color:#ffffff;stop-opacity:0;"
         offset="1"
         id="stop947" />
    </linearGradient>
    <radialGradient
       inkscape:collect="always"
       xlink:href="#linearGradient949"
       id="radialGradient951"
       cx="512"
       cy="512"
       fx="512"
       fy="512"
       r="500"
       gradientUnits="userSpaceOnUse" />
    <inkscape:path-effect
       bendpath1-nodetypes="cc"
       bendpath4="m 119.26956,75.83188 v 7.730435"
       bendpath3="m 119.26956,83.562315 h 29.81739"
       bendpath2="m 149.08695,75.83188 v 7.730435"
       bendpath1="M 121.47826,71.046372 147.9826,70.678256"
       xx="true"
       yy="true"
       is_visible="true"
       id="path-effect984-9"
       effect="envelope" />
    <radialGradient
       inkscape:collect="always"
       xlink:href="#linearGradient1012"
       id="radialGradient1022"
       gradientUnits="userSpaceOnUse"
       gradientTransform="matrix(0,1,1.1890162,0,48.438191,1.4080161)"
       cx="134.35886"
       cy="73.786797"
       fx="134.35886"
       fy="73.786797"
       r="21.634508" />
  </defs>
  <sodipodi:namedview
     id="base"
     pagecolor="#ffffff"
     bordercolor="#666666"
     borderopacity="1.0"
     inkscape:pageopacity="0.0"
     inkscape:pageshadow="2"
     inkscape:zoom="0.35"
     inkscape:cx="400"
     inkscape:cy="560"
     inkscape:document-units="px"
     inkscape:current-layer="layer3"
     inkscape:document-rotation="0"
     showgrid="false"
     units="px"
     inkscape:window-width="1251"
     inkscape:window-height="907"
     inkscape:window-x="0"
     inkscape:window-y="25"
     inkscape:window-maximized="0" />
  <metadata
     id="metadata5">
    <rdf:RDF>
      <cc:Work
         rdf:about="">
        <dc:format>image/svg+xml</dc:format>
        <dc:type
           rdf:resource="http://purl.org/dc/dcmitype/StillImage" />
        <dc:title />
      </cc:Work>
    </rdf:RDF>
  </metadata>
  <g
     inkscape:label="Layer 1"
     inkscape:groupmode="layer"
     id="layer1"
     style="display:none">
    <image
       sodipodi:absref="/Users/user/Kuiper_belt_plot_objects_of_outer_solar_system.png"
       xlink:href="Kuiper_belt_plot_objects_of_outer_solar_system.png"
       y="-24.64077"
       x="-24.64077"
       width="320.21487"
       height="320.21487"
       preserveAspectRatio="none"
       id="image913"
       style="opacity:0.8;stop-opacity:1" />
  </g>
  <g
     inkscape:groupmode="layer"
     id="layer2"
     inkscape:label="Layer 2"
     style="display:inline">
    <circle
       style="opacity:0.97;fill:#808080;stroke:#ffffff;stroke-width:0;stroke-linecap:round;stroke-linejoin:round;stroke-miterlimit:4;stroke-dasharray:none;stroke-opacity:0.572549;paint-order:fill markers stroke"
       id="path918"
       cx="135.46667"
       cy="135.46667"
       r="4.427103" />
    <path
       id="path942"
       style="display:inline;opacity:0.87;fill:url(#radialGradient951);stroke:#ffffff;stroke-width:0;stroke-linecap:round;stroke-linejoin:round;stroke-miterlimit:4;stroke-dasharray:none;stroke-opacity:0.572549;paint-order:fill markers stroke;fill-opacity:1"
       d="M 512 12 A 500.00001 500.00001 0 0 0 12 512 A 500.00001 500.00001 0 0 0 512 1012 A 500.00001 500.00001 0 0 0 1012 512 A 500.00001 500.00001 0 0 0 512 12 z M 512 212 A 300 300 0 0 1 812 512 A 300 300 0 0 1 512 812 A 300 300 0 0 1 212 512 A 300 300 0 0 1 512 212 z "
       transform="scale(0.26458333)" />
  </g>
  <g
     inkscape:groupmode="layer"
     id="layer4"
     inkscape:label="Layer 4"
     style="display:none">
    <path
       id="path958-7"
       style="opacity:0.97;fill:url(#radialGradient1022);fill-opacity:1;stroke:#ffffff;stroke-width:0;stroke-linecap:round;stroke-linejoin:round;stroke-miterlimit:4;stroke-dasharray:none;stroke-opacity:0.572549;paint-order:fill markers stroke;stop-opacity:1"
       d="m 126.95278,150.3546 c 0.65124,-0.006 0.87293,-0.43722 0.84611,-1.15276 -0.0271,-0.72366 -0.31714,-1.77921 -0.75156,-3.08109 -0.47911,-1.43578 -1.12803,-3.13088 -1.60714,-4.56666 -0.57095,-1.70682 -1.08884,-3.54119 -1.08738,-5.49632 10e-4,-1.9626 0.52168,-3.91432 1.09237,-5.7572 0.57069,-1.84289 1.17458,-3.55159 1.61268,-4.98308 0.43772,-1.43023 0.73008,-2.59457 0.75933,-3.40584 0.0285,-0.78916 -0.19077,-1.31591 -0.83908,-1.3326 -1.32807,-0.0342 -3.6946,2.43075 -7.78436,6.49196 -3.85324,3.82635 -8.10994,7.71981 -8.21786,10.09995 -0.11131,2.45499 3.93016,5.11632 7.95087,8.06578 4.13073,3.03017 6.77286,5.129 8.02602,5.11786 z m 17.02777,0 c -0.65124,-0.006 -0.87293,-0.43722 -0.84611,-1.15276 0.0271,-0.72366 0.31714,-1.77921 0.75156,-3.08109 0.47911,-1.43578 1.12803,-3.13088 1.60714,-4.56666 0.57095,-1.70682 1.08884,-3.54119 1.08738,-5.49632 -0.001,-1.9626 -0.52167,-3.91432 -1.09237,-5.7572 -0.5707,-1.84289 -1.17458,-3.55159 -1.61268,-4.98308 -0.43772,-1.43023 -0.73008,-2.59457 -0.75933,-3.40584 -0.0285,-0.78916 0.19077,-1.31591 0.83909,-1.3326 1.32806,-0.0342 3.69459,2.43075 7.78434,6.49196 3.85324,3.82635 8.10995,7.71981 8.21787,10.09995 0.11131,2.45499 -3.93016,5.11632 -7.95086,8.06578 -4.13074,3.03017 -6.77287,5.129 -8.02603,5.11786 z"
       inkscape:connector-curvature="0" />
  </g>
  <g
     inkscape:groupmode="layer"
     id="layer3"
     inkscape:label="Layer 3" />
</svg>
